<svg width="215" height="21" viewBox="0 0 215 21" fill="none" xmlns="http://www.w3.org/2000/svg">
<mask id="mask0" mask-type="alpha" maskUnits="userSpaceOnUse" x="0" y="0" width="215" height="21">
<path d="M6.48485 0.5C3.9394 0.5 2.48485 1.40909 1.69697 2.25758C0.78788 3.22727 0.303032 4.4394 0.303032 5.71213C0.303032 9.10606 3.75758 10.1364 6 10.9242C8.54545 11.8333 9.69697 12.5 9.69697 13.5303C9.69697 14.3788 9.15152 15.0455 8.48485 15.3485C7.57576 15.7727 6.66667 15.4697 5.81818 15.4091C5.0303 15.3485 4.30303 15.9545 4.30303 16.9848C4.30303 18.2576 6.06061 18.7424 7.33333 18.7424C11.2727 18.7424 12.9697 16.197 12.9697 13.7121C12.9697 10.6818 10.1818 9.34849 7.0303 8.13637C4.42424 7.16667 3.57576 6.5 3.57576 5.71213C3.57576 4.5 4.72727 3.65151 6.42424 3.65151C8.30303 3.65151 9.39394 4.68182 9.81818 5.10606C10.4242 5.65152 11.3333 5.71212 11.9394 4.98484C12.3636 4.43939 12.4848 3.59091 12 3.04545C11.3333 2.01515 9.39394 0.5 6.48485 0.5Z" fill="#208A88"/>
<path d="M207.576 0.5C205.03 0.5 203.576 1.40909 202.788 2.25758C201.879 3.22727 201.394 4.4394 201.394 5.71213C201.394 9.10606 204.848 10.1364 207.091 10.9242C209.636 11.8333 210.788 12.5 210.788 13.5303C210.788 14.3788 210.242 15.0455 209.576 15.3485C208.667 15.7727 207.758 15.4697 206.909 15.4091C206.121 15.3485 205.394 15.9545 205.394 16.9848C205.394 18.2576 207.151 18.7424 208.424 18.7424C212.364 18.7424 214.061 16.197 214.061 13.7121C214.061 10.6818 211.273 9.34849 208.121 8.13637C205.576 7.16667 204.667 6.5 204.667 5.71213C204.667 4.5 205.818 3.65151 207.515 3.65151C209.394 3.65151 210.485 4.68182 210.909 5.10606C211.515 5.65152 212.424 5.71212 213.03 4.98484C213.455 4.43939 213.576 3.59091 213.091 3.04545C212.364 2.01515 210.424 0.5 207.576 0.5Z" fill="#208A88"/>
<path d="M42.5454 0.924225C41.6364 0.924225 40.9091 1.6515 40.9091 2.56059V10.9848C40.9091 15.5909 43.9394 18.7424 48.4848 18.7424C53.697 18.7424 56.0606 14.7424 56.0606 10.9848V7.46968C56.0606 6.56059 55.3333 5.83332 54.4242 5.83332C53.5151 5.83332 52.7879 6.56059 52.7879 7.46968V10.9242C52.7879 13.106 51.697 15.4091 48.5454 15.4091C44.6667 15.4091 44.303 12.3182 44.303 10.9242V2.49999C44.1818 1.6515 43.4545 0.924225 42.5454 0.924225Z" fill="#208A88"/>
<path d="M54.3636 0.924225C53.4545 0.924225 52.7273 1.6515 52.7273 2.56059C52.7273 3.46968 53.4545 4.19696 54.3636 4.19696C55.2727 4.19696 56 3.46968 56 2.56059C56 1.6515 55.2727 0.924225 54.3636 0.924225Z" fill="#208A88"/>
<path d="M83.1515 0.924225C82.2424 0.924225 81.5152 1.6515 81.5152 2.56059V16.6212C81.5152 17.5303 82.2424 18.2576 83.1515 18.2576C84.0606 18.2576 84.7879 17.5303 84.7879 16.6212V4.07574H87.6364C91.3333 4.07574 93.2727 5.95453 93.2727 9.59089C93.2727 11.0454 92.8485 12.3182 92.1212 13.2273C91.9394 13.4091 91.697 13.6515 91.5758 13.8939C90.9091 14.5606 90.9091 15.5303 91.3939 16.1364C92 16.803 93.0303 16.9242 93.697 16.3182C95.5152 14.7424 96.5455 12.2576 96.5455 9.6515C96.5455 4.25756 93.1515 0.984835 87.6364 0.984835L83.1515 0.924225Z" fill="#208A88"/>
<path d="M149.697 0.924225C148.788 0.924225 148.061 1.6515 148.061 2.56059V16.6212C148.061 17.5303 148.788 18.2576 149.697 18.2576C150.606 18.2576 151.333 17.5303 151.333 16.6212V11.6515L157.091 17.7727C157.758 18.4394 158.788 18.4394 159.394 17.8333C160.061 17.1667 160.061 16.1364 159.455 15.5303L153.333 9.22725L155.515 7.22726C156.182 6.56059 156.182 5.53029 155.515 4.92423C154.849 4.25756 153.818 4.31817 153.212 4.92423L151.333 6.92423V2.56059C151.333 1.6515 150.606 0.924225 149.697 0.924225Z" fill="#208A88"/>
<path d="M157.818 0.924225C156.909 0.924225 156.182 1.6515 156.182 2.56059C156.182 3.46968 156.909 4.19696 157.818 4.19696C158.727 4.19696 159.455 3.46968 159.455 2.56059C159.515 1.6515 158.727 0.924225 157.818 0.924225Z" fill="#208A88"/>
<path d="M166.97 0.924225C166.061 0.924225 165.333 1.6515 165.333 2.56059V16.6212C165.333 17.5303 166.061 18.2576 166.97 18.2576H175.394C176.303 18.2576 177.03 17.5303 177.03 16.6212C177.03 15.7121 176.303 14.9848 175.394 14.9848H168.606V11.1667H174.364C175.273 11.1667 176 10.5 176 9.59089C176 8.6818 175.273 8.01513 174.364 8.01513H168.606V4.25756H170.364C171.273 4.25756 172 3.53029 172 2.6212C172 1.71211 171.273 0.984835 170.364 0.984835L166.97 0.924225Z" fill="#208A88"/>
<path d="M175.333 0.924225C174.424 0.924225 173.697 1.6515 173.697 2.56059C173.697 3.46968 174.424 4.19696 175.333 4.19696C176.242 4.19696 176.97 3.46968 176.97 2.56059C176.97 1.6515 176.242 0.924225 175.333 0.924225Z" fill="#208A88"/>
<path d="M103.576 0.924249C103.515 0.924249 103.394 0.924252 103.333 0.984858C102.606 1.16668 102.121 1.83334 102.121 2.56062V16.6212C102.121 17.5303 102.848 18.2576 103.758 18.2576C104.667 18.2576 105.394 17.5303 105.394 16.6212V8.19698L110 17.3485C110.303 17.8939 110.848 18.197 111.455 18.197C112.061 18.197 112.606 17.8939 112.909 17.3485L117.758 8.01516V11.6515C117.758 12.5606 118.485 13.2879 119.394 13.2879C120.303 13.2879 121.03 12.5606 121.03 11.6515V2.50001C121.03 1.77274 120.485 1.10607 119.818 0.924249C119.091 0.74243 118.303 1.04546 118 1.71213L111.515 13.6515L105.212 1.71213C104.848 1.22728 104.182 0.863643 103.576 0.924249Z" fill="#208A88"/>
<path d="M26.7879 0.5C21.7576 0.5 17.697 4.56061 17.697 9.65152C17.697 14.6818 21.7576 18.7424 26.7879 18.7424C31.8182 18.7424 35.9394 14.6818 35.9394 9.65152C35.8788 4.56061 31.8182 0.5 26.7879 0.5ZM26.7879 15.4091C23.5758 15.4091 20.9697 12.8636 20.9697 9.59091C20.9697 6.37879 23.5758 3.77273 26.7879 3.77273C30 3.77273 32.6061 6.37879 32.6061 9.59091C32.6061 12.8636 30 15.4091 26.7879 15.4091Z" fill="#208A88"/>
<path d="M195.576 6.43938C195.576 3.04544 193.273 0.924225 189.758 0.924225H184.424C183.515 0.924225 182.788 1.6515 182.788 2.56059V16.6212C182.788 17.5303 183.515 18.2576 184.424 18.2576C185.333 18.2576 186.061 17.5303 186.061 16.6212V12.1363H189.636L190.364 13.3485C190.848 14.1363 191.879 14.3182 192.606 13.8333C194.121 12.8636 192.909 11.2879 192.909 11.2879C194.667 10.3182 195.576 8.56059 195.576 6.43938ZM189.697 9.34847H186.061V4.13635H189.697C191.394 4.13635 192.242 5.16665 192.242 6.6818C192.303 8.01513 191.636 9.34847 189.697 9.34847Z" fill="#208A88"/>
<path d="M74.1818 11.1667L69.7576 1.83334C69.4546 1.28789 68.9091 0.863647 68.2424 0.863647C67.5758 0.863647 67.0303 1.22728 66.7273 1.83334L60.0606 15.8939C59.697 16.7424 60.0606 17.7121 60.8485 18.0758C61.6364 18.4394 62.6061 18.0758 63.0303 17.2879L64.6061 14.0152H72.9091C73.4546 14.0152 74 13.7121 74.2424 13.2879C74.9091 12.5 74.4243 11.7727 74.1818 11.1667ZM66 11.2273L68.303 6.3788L70.6061 11.2273H66Z" fill="#208A88"/>
<path d="M140.727 11.1667L136.303 1.83334C136.061 1.28789 135.455 0.863647 134.788 0.863647C134.121 0.863647 133.576 1.22728 133.273 1.83334L126.606 15.8939C126.242 16.7424 126.606 17.7121 127.394 18.0758C128.242 18.4394 129.152 18.0758 129.576 17.2879L131.152 14.0152H139.455C140 14.0152 140.545 13.7121 140.848 13.2879C141.455 12.5 140.97 11.7727 140.727 11.1667ZM132.545 11.2273L134.848 6.3788L137.152 11.2273H132.545Z" fill="#208A88"/>
<path d="M1.63636 13.1667C0.727273 13.1667 0 13.8939 0 14.803C0 15.7121 0.727273 16.4394 1.63636 16.4394C2.54545 16.4394 3.27273 15.7121 3.27273 14.803C3.27273 13.8333 2.54545 13.1667 1.63636 13.1667Z" fill="#208A88"/>
<path d="M202.667 13.1667C201.758 13.1667 201.03 13.8939 201.03 14.803C201.03 15.7121 201.758 16.4394 202.667 16.4394C203.576 16.4394 204.303 15.7121 204.303 14.803C204.303 13.8333 203.576 13.1667 202.667 13.1667Z" fill="#208A88"/>
<path d="M194.485 14.9243C193.576 14.9243 192.849 15.6515 192.849 16.5606C192.849 17.4697 193.576 18.197 194.485 18.197C195.394 18.197 196.121 17.4697 196.121 16.5606C196.121 15.7121 195.394 14.9243 194.485 14.9243Z" fill="#208A88"/>
<path d="M74.9697 14.9848C74.0606 14.9848 73.3333 15.7121 73.3333 16.6212C73.3333 17.5303 74.0606 18.2576 74.9697 18.2576C75.8788 18.2576 76.6061 17.5303 76.6061 16.6212C76.6061 15.7121 75.8788 14.9848 74.9697 14.9848Z" fill="#208A88"/>
<path d="M88.0606 14.9848C87.1515 14.9848 86.4242 15.7121 86.4242 16.6212C86.4242 17.5303 87.1515 18.2576 88.0606 18.2576C88.9697 18.2576 89.697 17.5303 89.697 16.6212C89.697 15.7121 88.9697 14.9848 88.0606 14.9848Z" fill="#208A88"/>
<path d="M119.273 14.9848C118.364 14.9848 117.636 15.7121 117.636 16.6212C117.636 17.5303 118.364 18.2576 119.273 18.2576C120.182 18.2576 120.909 17.5303 120.909 16.6212C120.97 15.7121 120.242 14.9848 119.273 14.9848Z" fill="#208A88"/>
<path d="M141.515 14.9848C140.606 14.9848 139.879 15.7121 139.879 16.6212C139.879 17.5303 140.606 18.2576 141.515 18.2576C142.424 18.2576 143.152 17.5303 143.152 16.6212C143.152 15.7121 142.424 14.9848 141.515 14.9848Z" fill="#208A88"/>
<path d="M34.3636 17.2273C33.4545 17.2273 32.7273 17.9546 32.7273 18.8636C32.7273 19.7727 33.4545 20.5 34.3636 20.5C35.2727 20.5 36 19.7727 36 18.8636C36 17.9546 35.2727 17.2273 34.3636 17.2273Z" fill="#208A88"/>
</mask>
<g mask="url(#mask0)">
<rect x="-0.273659" y="0.355423" width="214.545" height="20.6061" fill="#EAEAEA"/>
</g>
</svg>